<?xml version="1.0" standalone="no"?>
<!DOCTYPE svg PUBLIC "-//W3C//DTD SVG 20010904//EN"
 "http://www.w3.org/TR/2001/REC-SVG-20010904/DTD/svg10.dtd">
<svg version="1.0" xmlns="http://www.w3.org/2000/svg"
 width="2000.000000pt" height="400.000000pt" viewBox="0 0 2000.000000 400.000000"
 preserveAspectRatio="xMidYMid meet">

<g transform="translate(0.000000,400.000000) scale(0.100000,-0.100000)"
fill="#4CAF50" stroke="none">
<path d="M10025 3431 c-11 -5 -29 -19 -40 -31 -19 -20 -20 -38 -23 -255 -3
-227 -3 -233 17 -238 19 -5 21 -13 21 -76 l0 -71 60 0 60 0 0 71 c0 63 2 71
21 76 20 5 20 11 17 239 l-3 234 -25 25 c-28 27 -74 39 -105 26z m69 -67 c22
-21 20 -47 -5 -70 -19 -17 -23 -17 -47 -3 -32 17 -39 50 -17 73 21 20 49 21
69 0z"/>
<path d="M9895 2702 c-156 -46 -302 -166 -368 -302 -49 -100 -67 -176 -67
-280 0 -282 189 -521 463 -585 34 -8 62 -13 63 -12 2 1 -6 29 -16 61 -121 366
-54 742 186 1036 46 56 60 81 51 87 -6 4 -66 9 -132 10 -91 2 -134 -2 -180
-15z"/>
<path d="M6037 2326 c-92 -34 -147 -107 -147 -195 0 -63 13 -97 53 -140 83
-87 228 -96 321 -19 41 33 46 54 16 63 -14 4 -30 -2 -51 -19 -16 -14 -48 -31
-70 -38 -81 -24 -183 30 -210 110 -49 147 165 258 282 145 23 -21 30 -23 48
-14 27 15 27 22 -6 53 -63 58 -163 81 -236 54z"/>
<path d="M6541 2314 c-123 -61 -157 -220 -69 -320 92 -105 253 -98 333 14 39
57 47 149 17 209 -39 75 -115 123 -198 123 -16 0 -54 -12 -83 -26z m158 -49
c115 -59 115 -215 1 -273 -76 -39 -145 -18 -198 59 -30 43 -27 120 6 166 41
58 130 80 191 48z"/>
<path d="M7096 2325 c-47 -17 -91 -57 -118 -109 -30 -59 -22 -151 17 -208 45
-63 104 -90 187 -86 57 3 73 8 105 34 77 62 106 139 84 221 -17 64 -51 106
-110 136 -60 30 -106 33 -165 12z m140 -61 c77 -36 109 -146 62 -213 -32 -47
-68 -72 -114 -77 -93 -12 -185 84 -169 175 17 103 127 160 221 115z"/>
<path d="M7530 2130 l0 -210 25 0 c24 0 25 3 25 58 0 58 0 59 51 100 29 23 54
42 58 42 3 0 44 -45 91 -100 80 -94 87 -100 123 -100 l38 0 -92 105 c-50 58
-96 108 -100 111 -22 13 -2 39 85 111 52 43 95 81 95 86 1 4 -15 7 -35 7 -31
0 -54 -15 -165 -107 -71 -60 -134 -109 -139 -111 -6 -2 -10 40 -10 107 l0 111
-25 0 -25 0 0 -210z"/>
<path d="M8090 2130 l0 -210 30 0 30 0 0 210 0 210 -30 0 -30 0 0 -210z"/>
<path d="M8297 2333 c-4 -3 -7 -98 -7 -210 l0 -203 30 0 30 0 2 166 3 167 150
-167 c136 -151 152 -166 182 -166 l33 0 -2 208 -3 207 -27 3 -28 3 0 -165 c0
-91 -3 -166 -7 -165 -5 0 -75 75 -156 165 -109 121 -154 164 -171 164 -12 0
-26 -3 -29 -7z"/>
<path d="M9018 2330 c-147 -44 -204 -224 -106 -336 123 -140 351 -71 366 111
l4 55 -116 0 -116 0 0 -30 0 -30 85 0 c94 0 98 -3 65 -58 -13 -21 -38 -41 -67
-54 -75 -33 -140 -12 -191 63 -47 68 -14 177 64 214 45 21 125 16 154 -10 19
-17 21 -17 41 1 l21 19 -26 22 c-44 37 -118 51 -178 33z"/>
<path d="M10820 2310 l0 -29 93 -3 92 -3 3 -177 2 -178 25 0 25 0 0 180 0 180
90 0 90 0 0 30 0 30 -210 0 -210 0 0 -30z"/>
<path d="M11390 2131 l0 -211 30 0 30 0 0 90 0 91 153 -3 152 -3 3 -87 c3 -86
3 -88 27 -88 l25 0 0 210 0 210 -25 0 c-24 0 -24 -2 -27 -87 l-3 -88 -152 -3
-152 -3 -3 88 c-3 88 -3 88 -30 91 l-28 3 0 -210z"/>
<path d="M11960 2130 l0 -210 210 0 210 0 0 25 0 25 -182 2 -183 3 0 60 0 60
153 3 153 3 -3 27 -3 27 -152 3 -153 3 0 59 0 60 185 0 185 0 0 30 0 30 -210
0 -210 0 0 -210z"/>
<path d="M12530 2130 l0 -210 25 0 c25 0 25 1 25 90 l0 90 79 0 79 0 67 -90
c62 -84 70 -90 102 -90 l35 0 -28 38 c-15 20 -43 57 -61 81 -18 24 -33 47 -33
51 0 4 15 11 34 14 71 13 111 98 79 164 -30 62 -63 72 -245 72 l-158 0 0 -210z
m344 128 c21 -29 20 -57 -1 -80 -14 -16 -33 -18 -155 -18 l-138 0 0 60 0 60
139 0 c133 0 141 -1 155 -22z"/>
<path d="M13202 2135 c-56 -113 -102 -207 -102 -210 0 -3 14 -5 30 -5 26 0 33
6 52 45 l22 45 131 0 131 0 22 -45 c19 -38 26 -45 52 -45 l30 0 -24 53 c-13
28 -59 123 -102 210 -76 151 -80 157 -109 157 -29 0 -33 -6 -133 -205z m183
39 c25 -53 45 -100 45 -105 0 -10 -183 -13 -193 -3 -6 7 89 204 98 204 3 0 26
-43 50 -96z"/>
<path d="M13727 2334 c-4 -4 -7 -99 -7 -211 l0 -203 30 0 30 0 0 90 0 90 139
0 c127 0 141 2 172 23 67 45 70 143 6 191 -26 19 -44 21 -195 24 -92 2 -171 0
-175 -4z m347 -76 c21 -29 20 -57 -1 -80 -14 -16 -33 -18 -155 -18 l-138 0 0
60 0 60 139 0 c133 0 141 -1 155 -22z"/>
<path d="M14290 2130 l0 -210 30 0 30 0 0 210 0 210 -30 0 -30 0 0 -210z"/>
<path d="M14617 2330 c-87 -22 -117 -51 -117 -115 0 -80 38 -101 208 -116 93
-8 121 -14 137 -29 31 -32 11 -71 -45 -88 -53 -16 -155 -10 -217 12 -39 14
-44 14 -65 -4 l-23 -19 50 -22 c61 -28 203 -38 269 -19 62 17 99 58 99 110 0
44 -22 76 -63 92 -14 5 -80 16 -148 23 -67 7 -129 19 -138 26 -26 21 -13 62
26 81 45 23 162 24 226 2 39 -13 51 -14 70 -3 13 7 24 16 24 20 0 4 -26 17
-57 29 -65 25 -179 34 -236 20z"/>
<path d="M15060 2310 l0 -30 95 0 95 0 0 -180 0 -180 25 0 25 0 0 180 0 180
90 0 90 0 0 30 0 30 -210 0 -210 0 0 -30z"/>
<path d="M10560 2004 c-150 -32 -261 -120 -325 -256 -34 -73 -65 -192 -52
-204 12 -12 147 38 205 76 110 70 186 177 231 324 11 37 21 70 21 72 0 5 -5 5
-80 -12z"/>
<path d="M8083 1290 c-48 -29 -115 -121 -179 -244 -31 -61 -68 -124 -83 -139
-75 -82 -156 -68 -136 23 12 56 94 100 96 51 0 -11 3 -10 11 7 30 62 -65 38
-109 -28 -25 -36 -30 -89 -11 -108 21 -21 84 -14 116 13 17 14 32 25 35 25 2
0 2 -11 -1 -25 -6 -35 29 -34 50 3 9 15 31 41 48 57 l32 30 -7 -37 c-14 -72
18 -103 75 -73 18 9 30 19 27 21 -3 3 -14 0 -25 -7 -45 -28 -69 25 -37 81 17
30 19 60 4 60 -7 0 -39 -28 -71 -62 -33 -35 -57 -55 -54 -45 3 10 6 23 6 27 0
5 15 26 33 47 17 21 24 32 15 24 -25 -19 -23 -10 18 72 79 157 156 249 185
220 18 -18 3 -55 -48 -123 -75 -98 -80 -108 -44 -75 61 54 121 144 121 180 0
21 -6 35 -16 39 -20 8 -14 9 -51 -14z"/>
<path d="M9433 1290 c-45 -27 -123 -135 -184 -255 -28 -55 -65 -116 -82 -135
-18 -19 -25 -29 -17 -22 22 19 31 14 24 -13 -11 -45 27 -29 73 30 24 30 47 55
52 55 5 0 5 -16 0 -37 -11 -52 11 -88 49 -78 15 4 37 16 49 27 l21 20 11 -21
c16 -30 67 -27 119 6 23 15 44 33 47 41 3 8 -9 2 -27 -13 -65 -54 -118 -56
-118 -4 0 16 4 29 8 29 5 0 27 16 50 36 28 24 42 44 42 60 0 62 -98 -8 -122
-87 -12 -43 -49 -79 -80 -79 -36 0 -35 36 7 133 15 37 -23 16 -80 -43 -31 -34
-59 -59 -62 -56 -12 12 37 74 128 163 56 54 115 118 130 142 32 50 38 105 13
115 -20 8 -14 9 -51 -14z m41 -37 c-2 -38 -41 -95 -129 -190 -85 -93 -107 -96
-64 -10 95 188 197 294 193 200z m56 -248 c0 -18 -44 -65 -60 -65 -12 0 -8 8
22 53 21 30 38 35 38 12z"/>
<path d="M12153 1290 c-48 -29 -125 -139 -192 -275 -70 -139 -81 -175 -57
-175 9 0 21 12 27 27 11 29 37 63 49 63 3 0 14 -16 23 -35 9 -18 28 -42 43
-51 25 -17 28 -17 60 1 19 10 40 25 47 34 10 13 7 12 -15 -2 -54 -34 -95 -16
-120 53 -11 33 -10 35 27 67 24 21 42 30 48 24 15 -15 1 -39 -35 -61 -18 -11
-26 -20 -18 -20 37 0 90 51 90 87 0 39 -35 27 -103 -37 -36 -33 -67 -60 -71
-60 -19 0 28 58 110 134 107 99 141 140 154 185 6 23 5 35 -6 46 -20 19 -22
19 -61 -5z m57 -28 c0 -27 -51 -101 -101 -148 -62 -58 -111 -96 -116 -90 -2 2
12 37 32 77 59 115 185 226 185 161z"/>
<path d="M12333 1117 c-65 -120 -96 -187 -89 -195 3 -2 18 22 34 54 17 33 55
98 85 146 41 65 52 90 43 97 -9 7 -28 -20 -73 -102z"/>
<path d="M9117 1128 c-14 -18 -32 -48 -41 -65 -14 -28 -22 -33 -52 -33 -21 0
-33 -4 -29 -10 3 -5 15 -10 27 -10 15 0 18 -4 13 -17 -4 -10 -10 -45 -13 -77
-4 -48 -1 -62 12 -72 18 -13 70 -4 90 16 5 5 -5 4 -22 -2 -24 -9 -34 -10 -43
-1 -16 16 -13 73 5 118 12 28 21 35 43 36 27 0 27 1 5 10 -26 10 -25 11 25 80
37 52 39 59 19 59 -8 0 -26 -15 -39 -32z"/>
<path d="M10867 1042 c-9 -9 -20 -35 -26 -57 -5 -22 -17 -59 -25 -82 -9 -23
-13 -49 -10 -58 9 -23 48 -18 74 10 15 16 35 25 54 26 28 1 27 3 -12 15 -10 3
-9 10 3 33 15 31 20 87 9 115 -8 21 -47 20 -67 -2z m43 -7 c12 -15 10 -108 -3
-122 -10 -9 -37 17 -37 35 0 8 8 24 18 35 16 19 16 20 -5 15 -17 -5 -23 -2
-23 11 0 17 18 41 31 41 4 0 12 -7 19 -15z m-20 -146 c0 -5 -10 -17 -22 -28
-34 -33 -49 -10 -28 45 10 26 11 26 30 9 11 -10 20 -22 20 -26z"/>
<path d="M11566 1038 c-9 -12 -16 -34 -16 -49 0 -53 -84 -139 -136 -139 -26 0
-44 26 -44 65 0 35 61 98 85 89 9 -4 14 -13 11 -20 -3 -8 -1 -14 4 -14 13 0
23 41 12 52 -15 15 -76 -16 -106 -54 -28 -37 -35 -95 -14 -116 21 -21 84 -14
117 13 l30 26 3 -28 c4 -38 39 -43 73 -9 16 16 38 27 58 27 32 2 32 2 4 6 -22
3 -28 9 -23 21 26 81 29 102 18 126 -15 33 -55 35 -76 4z m55 -15 c11 -30 3
-99 -13 -109 -6 -4 -17 1 -25 11 -17 24 -16 30 2 49 21 20 19 29 -5 23 -24 -6
-25 1 -4 31 20 29 32 28 45 -5z m-36 -113 c17 -19 17 -21 0 -40 -35 -39 -54
-20 -39 38 8 27 16 28 39 2z"/>
<path d="M11751 1034 c-12 -15 -21 -38 -21 -52 0 -14 -10 -39 -23 -56 -17 -23
-21 -39 -17 -61 7 -39 38 -44 77 -11 16 13 42 26 58 29 l30 4 -27 2 c-33 1
-32 -1 -13 44 16 38 19 84 9 111 -10 25 -50 19 -73 -10z m50 -5 c13 -24 6 -96
-10 -112 -8 -8 -15 -5 -26 9 -19 25 -19 30 8 55 l22 22 -22 -6 c-17 -4 -23 -1
-23 12 0 18 18 41 32 41 4 0 12 -10 19 -21z m-40 -163 c-37 -39 -53 -18 -31
40 l11 28 21 -22 22 -22 -23 -24z"/>
<path d="M8174 1030 c-22 -9 -67 -60 -101 -115 -18 -28 -21 -41 -13 -56 17
-30 45 -22 84 23 35 40 36 41 36 16 0 -51 45 -72 88 -42 20 14 22 14 22 -3 1
-14 6 -11 23 12 12 17 36 46 54 65 l32 35 -6 -51 c-4 -39 -2 -54 12 -67 22
-23 36 -21 79 8 34 23 36 23 36 5 0 -33 39 -24 76 17 33 36 40 32 28 -14 -5
-16 -18 -26 -47 -34 -51 -14 -151 -63 -195 -97 -42 -32 -82 -100 -82 -139 0
-30 35 -73 59 -73 8 0 2 9 -13 21 -48 38 -31 105 45 174 44 40 173 105 208
105 19 0 20 -1 4 -52 -32 -111 -88 -194 -152 -228 -20 -10 -31 -19 -25 -20 6
0 30 13 54 29 66 44 116 125 165 268 2 6 13 9 26 6 15 -4 20 -3 15 5 -4 7 -14
12 -22 12 -8 0 -14 5 -14 10 0 22 33 145 41 154 11 12 -8 36 -28 36 -32 0 -75
-34 -113 -90 -51 -75 -78 -100 -106 -100 -35 0 -39 33 -10 96 14 31 26 60 26
65 0 24 -32 3 -76 -47 -26 -32 -49 -53 -51 -48 -2 6 3 31 11 57 8 26 10 47 5
47 -11 0 -25 -28 -34 -70 -8 -40 -50 -90 -76 -90 -27 0 -35 60 -16 117 20 59
5 75 -49 53z m15 -63 c-47 -93 -99 -137 -99 -84 0 47 86 147 112 131 4 -3 -2
-24 -13 -47z m452 -5 c-41 -81 -101 -130 -101 -83 0 27 61 113 90 128 33 16
36 4 11 -45z"/>
<path d="M8779 1000 c-37 -38 -55 -87 -47 -125 9 -49 85 -43 144 11 23 21 26
26 8 12 -41 -32 -90 -52 -109 -44 -9 3 -15 18 -15 35 0 23 8 34 36 51 41 26
69 64 60 85 -9 26 -38 17 -77 -25z m61 8 c0 -14 -50 -68 -62 -68 -10 0 8 37
30 63 18 20 32 22 32 5z"/>
<path d="M10120 1027 c-13 -6 -39 -32 -57 -57 -60 -83 -62 -84 -85 -64 -14 13
-18 26 -14 45 3 15 -1 35 -9 45 -18 26 -27 14 -16 -22 14 -51 -28 -124 -64
-110 -19 7 -19 43 0 76 17 29 18 40 6 40 -5 0 -30 -30 -56 -66 -44 -61 -87
-96 -101 -81 -10 9 12 64 46 114 37 55 30 72 -11 24 -38 -46 -65 -126 -49
-146 15 -18 40 -7 87 38 18 17 34 29 35 26 2 -2 8 -13 14 -24 17 -30 49 -30
72 0 11 14 22 31 24 37 3 8 12 7 27 -4 13 -9 30 -14 37 -11 10 4 14 -3 14 -21
0 -40 33 -33 74 16 28 32 36 37 36 22 0 -28 28 -64 49 -64 11 0 29 8 42 19 21
17 25 17 34 4 18 -24 47 -8 84 47 19 28 36 48 39 46 8 -9 -10 -106 -21 -113
-7 -4 -40 -17 -74 -29 -144 -50 -235 -137 -235 -223 0 -34 28 -71 54 -71 6 0
0 8 -13 19 -55 44 -11 145 92 210 64 40 164 79 175 68 4 -3 -3 -38 -16 -77
-29 -91 -86 -171 -142 -199 -24 -11 -37 -21 -30 -21 61 0 157 111 198 228 19
57 27 67 49 70 28 4 25 22 -4 22 -17 0 -18 4 -6 63 26 130 27 137 11 137 -9 0
-25 -19 -37 -42 -30 -60 -78 -128 -90 -128 -20 0 -20 31 0 72 11 23 19 44 16
46 -9 9 -28 -13 -45 -53 -22 -51 -56 -86 -77 -78 -12 5 -14 19 -10 72 3 36 7
75 9 86 4 25 -26 31 -62 12z m40 -26 c0 -5 -19 -38 -42 -73 -46 -67 -78 -87
-78 -46 0 25 18 57 58 101 25 26 62 37 62 18z"/>
<path d="M10727 1018 c-8 -13 -26 -44 -41 -70 -31 -55 -54 -80 -67 -73 -14 10
-11 37 11 78 16 30 17 37 5 37 -17 0 -43 -45 -46 -81 -7 -82 25 -81 87 4 l47
62 -7 -40 c-16 -96 -14 -93 -69 -111 -150 -49 -267 -149 -267 -227 0 -29 35
-77 57 -77 11 0 7 7 -11 21 -48 38 -31 105 45 174 44 39 173 105 207 105 18 0
19 -4 10 -42 -17 -76 -66 -164 -116 -209 -41 -37 -43 -40 -13 -23 61 34 131
148 166 271 2 7 13 9 26 6 15 -4 20 -3 15 5 -4 7 -14 12 -22 12 -17 0 -17 -1
1 80 24 108 16 153 -18 98z"/>
<path d="M11103 965 c-18 -30 -28 -55 -24 -55 4 0 6 -12 4 -27 -11 -84 79 -73
146 17 22 31 19 29 -27 -13 -30 -28 -60 -47 -70 -45 -27 5 -26 54 2 112 30 61
31 66 13 66 -7 0 -27 -25 -44 -55z"/>
<path d="M10997 942 c-18 -37 -21 -54 -14 -70 13 -28 39 -28 63 0 14 17 15 20
2 9 -39 -30 -51 21 -17 75 17 29 18 34 5 34 -9 0 -26 -21 -39 -48z"/>
<path d="M11874 909 c-19 -22 -19 -22 4 -10 12 6 22 16 22 21 0 15 -5 12 -26
-11z"/>
<path d="M12193 848 c2 -7 10 -13 17 -13 7 0 15 6 18 13 2 7 -5 12 -18 12 -13
0 -20 -5 -17 -12z"/>
</g>
</svg>
